<mxfile host="Electron" agent="Mozilla/5.0 (X11; Linux x86_64) AppleWebKit/537.36 (KHTML, like Gecko) draw.io/24.7.17 Chrome/128.0.6613.36 Electron/32.0.1 Safari/537.36" version="24.7.17">
  <diagram name="Страница 1" id="mt56Luzs4vUoFwmHMjQ6">
    <mxGraphModel dx="1368" dy="835" grid="1" gridSize="10" guides="1" tooltips="1" connect="1" arrows="1" fold="1" page="1" pageScale="1" pageWidth="827" pageHeight="1169" math="0" shadow="0">
      <root>
        <mxCell id="0" />
        <mxCell id="1" parent="0" />
        <mxCell id="yWb5lnPY_6RyMhFcuhc4-1" value="" style="shape=datastore;whiteSpace=wrap;html=1;" vertex="1" parent="1">
          <mxGeometry x="600" y="120" width="120" height="160" as="geometry" />
        </mxCell>
        <mxCell id="yWb5lnPY_6RyMhFcuhc4-2" value="&lt;font style=&quot;font-size: 14px;&quot;&gt;Database&lt;/font&gt;" style="text;html=1;align=center;verticalAlign=middle;whiteSpace=wrap;rounded=0;" vertex="1" parent="1">
          <mxGeometry x="600" y="50" width="120" height="30" as="geometry" />
        </mxCell>
        <mxCell id="yWb5lnPY_6RyMhFcuhc4-3" value="" style="rounded=1;whiteSpace=wrap;html=1;" vertex="1" parent="1">
          <mxGeometry x="40" y="120" width="120" height="160" as="geometry" />
        </mxCell>
        <mxCell id="yWb5lnPY_6RyMhFcuhc4-4" value="" style="rounded=0;whiteSpace=wrap;html=1;" vertex="1" parent="1">
          <mxGeometry x="50" y="140" width="100" height="120" as="geometry" />
        </mxCell>
        <mxCell id="yWb5lnPY_6RyMhFcuhc4-5" value="&lt;font style=&quot;font-size: 14px;&quot;&gt;Mobile App&lt;/font&gt;" style="text;html=1;align=center;verticalAlign=middle;whiteSpace=wrap;rounded=0;" vertex="1" parent="1">
          <mxGeometry x="40" y="50" width="120" height="30" as="geometry" />
        </mxCell>
        <mxCell id="yWb5lnPY_6RyMhFcuhc4-6" value="" style="shape=doubleArrow;whiteSpace=wrap;html=1;" vertex="1" parent="1">
          <mxGeometry x="200" y="180" width="80" height="40" as="geometry" />
        </mxCell>
        <mxCell id="yWb5lnPY_6RyMhFcuhc4-7" value="" style="shape=doubleArrow;whiteSpace=wrap;html=1;" vertex="1" parent="1">
          <mxGeometry x="480" y="180" width="80" height="40" as="geometry" />
        </mxCell>
        <mxCell id="yWb5lnPY_6RyMhFcuhc4-8" value="&lt;font style=&quot;font-size: 14px;&quot;&gt;gRPC&lt;/font&gt;" style="text;html=1;align=center;verticalAlign=middle;whiteSpace=wrap;rounded=0;" vertex="1" parent="1">
          <mxGeometry x="200" y="130" width="80" height="30" as="geometry" />
        </mxCell>
        <mxCell id="yWb5lnPY_6RyMhFcuhc4-9" value="&lt;font style=&quot;font-size: 14px;&quot;&gt;TCP/IP&lt;/font&gt;" style="text;html=1;align=center;verticalAlign=middle;whiteSpace=wrap;rounded=0;" vertex="1" parent="1">
          <mxGeometry x="480" y="130" width="80" height="30" as="geometry" />
        </mxCell>
        <mxCell id="yWb5lnPY_6RyMhFcuhc4-11" value="Ozon Bank" style="label;whiteSpace=wrap;html=1;align=center;verticalAlign=bottom;spacingLeft=0;spacingBottom=4;imageAlign=center;imageVerticalAlign=top;image=img/clipart/Gear_128x128.png" vertex="1" parent="1">
          <mxGeometry x="320" y="160" width="120" height="80" as="geometry" />
        </mxCell>
        <mxCell id="yWb5lnPY_6RyMhFcuhc4-12" value="&lt;font style=&quot;font-size: 14px;&quot;&gt;Backend&lt;/font&gt;" style="text;html=1;align=center;verticalAlign=middle;whiteSpace=wrap;rounded=0;" vertex="1" parent="1">
          <mxGeometry x="320" y="50" width="120" height="30" as="geometry" />
        </mxCell>
      </root>
    </mxGraphModel>
  </diagram>
</mxfile>
